<svg viewBox="0 0 512 512" xmlns="http://www.w3.org/2000/svg"><path d="M3.5 421.4c56 5.1 106.1-8.9 151.5-42.9-7-1.6-13.4-1.6-19.5-3.1-35.7-8.5-60.4-30-74.9-63.5-.7-1.7-2.5-3.8-.9-5.5 1.2-1.3 3.5-.2 5.2 0 12.6 1.3 25.2.9 37.6-2 .2-2.2-1.4-2-2.6-2.4-30.7-8.2-53-26.5-67.4-54.8-6.6-13-10.2-26.6-10.6-41.2-.2-5.7.1-5.8 5.4-3.3 12.6 6 25.8 9.4 40.9 10.1-6.9-5.6-13.1-10.5-18.4-16.4-16.1-17.9-25.1-38.8-27-62.9-1.5-19.6 2.6-37.9 11.1-55.5 1.9-3.9 3.6-3.6 6-.7C56.6 97.7 76.1 115 97.6 130c16 11.2 33 20.5 50.9 28.4 23.6 10.3 48.1 17.2 73.5 21.3 8 1.3 16.2 1.6 24.3 2.4 4.1.4 5.2-.8 4.4-5-4.1-21.6-1.3-42.6 8.1-62.3 16.1-33.6 43.1-54 79.8-59.4 32.6-4.8 61.9 4.5 86.2 27.4 3.7 3.5 7 4.4 12 3.1 19.6-5 38.3-12.1 55.9-22.1.5-.3 1.1-.4 2.9-1.1-8.2 24.1-22.7 41.9-43 55.5 4.7.9 18.6-1.6 28.2-4.6 9.2-2.9 18.4-5.5 27.2-9.4 1.2 1.3.1 2-.4 2.7-11.7 16.5-25.1 31.4-41.1 43.8-2.2 1.7-4.3 3.6-6.6 5.2-1.7 1.2-1.8 2.7-1.7 4.4.7 18.2-.6 36.3-3.2 54.2-2.7 18.3-7.3 36.1-13.4 53.6-5 14.3-10.9 28.2-17.9 41.7-17.3 33.2-39.8 62.4-67.9 87.3-29.9 26.4-63.9 45.4-101.9 57.2-23.7 7.4-48 11.7-72.9 13-19.2 1-38.3.7-57.3-1.7-27.2-3.3-53.4-10.7-78.6-21.5-12.9-5.5-25.1-12.1-37.3-19-1.7-.7-3.4-1.5-4.3-3.7z" fill="#A7A7A7"/></svg>